<svg width="24" height="24" viewBox="0 0 24 24" fill="none" xmlns="http://www.w3.org/2000/svg">
<path fill-rule="evenodd" clip-rule="evenodd" d="M3.22241 11.1224C3.22241 6.8591 7.3093 3.66138 12.0001 3.66138C16.6909 3.66138 20.7778 6.8591 20.7778 11.1224C20.7778 15.3857 16.6909 18.5835 12.0001 18.5835C11.5393 18.5835 11.0855 18.5536 10.6431 18.4957L8.09754 20.1915C7.95311 20.2877 7.78339 20.339 7.60985 20.3387C7.43631 20.3385 7.26672 20.2869 7.12253 20.1903C6.97834 20.0937 6.866 19.9566 6.79973 19.7962C6.73345 19.6358 6.7162 19.4594 6.75017 19.2892L7.14078 17.3397C4.82697 16.0292 3.22241 13.7706 3.22241 11.1224Z" fill="#2A0000"/>
</svg>
